<?xml version="1.0" standalone="no"?>
<!DOCTYPE svg PUBLIC "-//W3C//DTD SVG 20010904//EN"
 "http://www.w3.org/TR/2001/REC-SVG-20010904/DTD/svg10.dtd">
<svg version="1.0" xmlns="http://www.w3.org/2000/svg"
 width="312.000000pt" height="130.000000pt" viewBox="0 0 312.000000 130.000000"
 preserveAspectRatio="xMidYMid meet">

<g transform="translate(0.000000,130.000000) scale(0.100000,-0.100000)"
fill="#000000" stroke="none">
<path d="M872 1115 c3 -3 238 -111 524 -240 l519 -234 177 176 c98 98 176 177
175 178 -1 0 -81 -1 -177 -3 l-176 -3 -27 -78 c-42 -118 -48 -124 -116 -119
-44 4 -141 40 -443 166 -264 111 -399 162 -424 162 -21 0 -35 -2 -32 -5z"/>
<path d="M1007 762 c-92 -92 -167 -171 -167 -175 0 -4 77 -6 172 -5 l172 3 32
84 c44 111 57 124 114 119 28 -3 196 -67 437 -167 305 -126 399 -162 427 -159
32 3 14 13 -162 92 -108 49 -340 154 -514 233 -174 78 -323 143 -330 143 -7 0
-89 -75 -181 -168z"/>
<path d="M130 259 c0 -97 1 -100 22 -97 20 3 21 8 20 68 -1 36 1 71 6 78 6 9
42 12 143 10 l134 -3 3 -77 c3 -75 4 -78 27 -78 24 0 25 2 25 81 0 125 11 119
-200 119 l-180 0 0 -101z"/>
<path d="M606 313 l57 -47 -59 -53 -59 -53 34 0 c26 0 44 10 77 40 59 55 96
55 149 0 31 -32 46 -40 75 -40 l35 1 -58 53 -58 53 57 44 58 44 -32 3 c-25 3
-42 -5 -76 -32 -59 -49 -100 -49 -146 -1 -27 28 -41 35 -73 35 l-39 0 58 -47z"/>
<path d="M960 260 l0 -100 183 2 182 3 0 95 0 95 -182 3 -183 2 0 -100z m328
43 c3 -10 -30 -13 -142 -13 -124 0 -146 2 -146 15 0 13 20 15 142 13 102 -2
143 -6 146 -15z m-3 -78 c0 -6 -56 -11 -142 -13 -124 -2 -143 0 -143 13 0 13
19 15 143 13 86 -2 142 -7 142 -13z"/>
<path d="M1377 353 c-12 -12 -8 -168 5 -181 16 -16 344 -17 354 -1 9 15 9 163
0 177 -8 13 -347 18 -359 5z m321 -91 l3 -53 -143 3 -143 3 -3 39 c-6 68 -8
67 145 64 l138 -3 3 -53z"/>
<path d="M1792 348 c-8 -8 -12 -45 -12 -101 0 -86 1 -88 23 -85 18 2 23 10 25
41 l3 37 140 0 139 0 0 -40 c0 -36 3 -40 25 -40 25 0 25 1 25 84 0 46 -3 91
-6 100 -5 14 -31 16 -178 16 -120 0 -176 -4 -184 -12z m323 -48 c4 -6 -47 -10
-145 -10 -98 0 -149 4 -145 10 4 6 63 10 145 10 82 0 141 -4 145 -10z"/>
<path d="M2200 340 c0 -18 7 -20 80 -20 l80 0 0 -81 c0 -76 1 -80 21 -77 20 3
22 10 23 78 l1 75 83 3 c74 3 82 5 82 22 0 19 -8 20 -185 20 -178 0 -185 -1
-185 -20z"/>
<path d="M2617 353 c-12 -11 -8 -88 5 -101 8 -8 59 -12 165 -12 129 0 153 -2
153 -15 0 -13 -25 -15 -165 -15 l-165 0 0 -25 0 -25 180 0 180 0 11 28 c7 17
8 40 2 62 l-8 35 -163 3 c-124 2 -163 5 -159 15 3 9 50 13 170 15 159 2 167 3
167 22 0 19 -7 20 -183 20 -101 0 -187 -3 -190 -7z"/>
<path d="M3016 197 c3 -10 9 -15 12 -12 3 3 0 11 -7 18 -10 9 -11 8 -5 -6z"/>
</g>
</svg>
